<?xml version="1.0" encoding="utf-8"?>
<!-- Generator: Adobe Illustrator 19.2.1, SVG Export Plug-In . SVG Version: 6.00 Build 0)  -->
<svg version="1.1" id="layer" xmlns="http://www.w3.org/2000/svg" xmlns:xlink="http://www.w3.org/1999/xlink" x="0px" y="0px"
	 viewBox="0 0 652 652" style="enable-background:new 0 0 652 652;" xml:space="preserve">
<style type="text/css">
	.st0{fill:#231815;}
	.st1{fill:#C9142A;}
</style>
<g>
	<g>
		<g>
			<polygon class="st0" points="112.3,366 79.6,290.3 46.5,366 20.7,366 64.2,266.3 131.4,350.5 138.1,366 			"/>
			<path class="st1" d="M91.9,260.1c-3.8-8.6-11.2-9-12.3-9h-8.7H52.3l69.9,78.4L91.9,260.1z"/>
			<g>
				<path class="st0" d="M144.5,393v-79.7c0-15.2,8.8-23.3,25.4-23.3h25.6c16.6,0,25.4,8,25.4,23.3v29.3c0,15.2-8.8,23.2-25.4,23.2
					H165l6.7-17.1h23.8c4.8,0,6.6-1.6,6.6-6.1v-29.3c0-4.4-1.8-6.1-6.6-6.1h-25.6c-4.8,0-6.6,1.6-6.6,6.1V393H144.5z"/>
				<path class="st0" d="M256.4,365.9c-16.6,0-25.4-8-25.4-23.2v-52.6h18.8v52.6c0,4.4,1.8,6.1,6.7,6.1h24.5c4.8,0,6.6-1.6,6.6-5.8
					v-52.8h18.8v52.8c0,15.1-8.8,23-25.4,23H256.4z"/>
				<path class="st0" d="M404.1,365.9c-16.6,0-25.4-8-25.4-23.2v-52.6h18.8v52.6c0,4.4,1.8,6.1,6.6,6.1h24.5c4.9,0,6.6-1.6,6.6-5.8
					v-52.8H454v52.8c0,15.1-8.8,23-25.4,23H404.1z"/>
				<path class="st0" d="M467.4,365.9v-52.5c0-15.2,8.8-23.3,25.4-23.3h12.6v17.2h-12.6c-4.8,0-6.7,1.6-6.7,6.1v52.5H467.4z"/>
				<path class="st0" d="M366.2,348.8h-11.7c-4.9,0-6.7-1.6-6.7-6.1v-4.4h0v-31h18.3v-17.2h-18.3v-12.5h-4.4
					c-10.6,0.1-12.9,6.8-13.4,10.3v2.2h-0.1h-14.5l-0.2,17.2h14.6v35.4c0,15.2,8.8,23.2,25.4,23.2h16.6L366.2,348.8z"/>
				<path class="st0" d="M538.4,365.9c-16.6,0-25.4-8-25.4-23.2v-29.3c0-15.2,8.8-23.3,25.4-23.3h26.9c16.6,0,25.4,8.1,25.4,23.3
					v0.2c0,15.1-8.8,23-25.4,23h-31.4l6.3-17.2h25.1c4.8,0,6.7-1.6,6.7-5.8v-0.2c0-4.4-1.8-6.1-6.7-6.1h-26.9
					c-4.8,0-6.6,1.7-6.6,6.1v29.3c0,4.4,1.8,6.1,6.6,6.1h41.2l5,17.2H538.4z"/>
			</g>
		</g>
	</g>
	<g>
		<path class="st0" d="M606.4,263.5c-7.9,0-14.3,6.4-14.3,14.3c0,7.9,6.4,14.3,14.3,14.3c7.9,0,14.3-6.4,14.3-14.3
			C620.7,269.9,614.3,263.5,606.4,263.5z M603.3,289.6v-9.7h1.8c0.8,0,1.4,0.2,2,0.6c0.6,0.4,1.2,1.1,1.8,2.2l3.4,5.7
			c-1.8,1-3.8,1.6-5.9,1.6C605.3,290,604.3,289.9,603.3,289.6z M603.3,277.7v-7h3.1c1.3,0,2.3,0.3,2.9,0.9c0.7,0.6,1,1.4,1,2.4
			c0,1.1-0.4,2-1.1,2.7c-0.7,0.7-1.7,1-2.9,1H603.3z M614.4,287l-2.9-4.6c-0.6-1-1.1-1.8-1.5-2.2c-0.4-0.4-0.9-0.8-1.4-1v-0.1
			c2.9-0.8,4.4-2.6,4.4-5.4c0-1.7-0.5-3-1.6-3.9c-1.1-0.9-2.6-1.4-4.5-1.4h-6.1v20.2c-3.8-2-6.5-6.1-6.5-10.7
			c0-6.7,5.5-12.1,12.1-12.1c6.7,0,12.1,5.5,12.1,12.1C618.5,281.5,616.9,284.7,614.4,287z"/>
	</g>
</g>
</svg>
