<?xml version="1.0" encoding="UTF-8"?>
<svg width="120px" height="26px" viewBox="0 0 120 26" version="1.1" xmlns="http://www.w3.org/2000/svg" xmlns:xlink="http://www.w3.org/1999/xlink">
    <!-- Generator: Sketch 63.1 (92452) - https://sketch.com -->
    <title>desktop_navbar_img_brandlogotype</title>
    <desc>Created with Sketch.</desc>
    <g id="Cut" stroke="none" stroke-width="1" fill="none" fill-rule="evenodd">
        <g id="desktop_navbar_img_brandlogotype" fill="#000000">
            <g id="Group-22" transform="translate(1.000000, 1.000000)">
                <path d="M9.34385725,0.50414553 C13.6030761,-0.428893261 18.1241685,0.134178897 22.0673658,2.19322664 L22.0673658,2.19322664 L22.1349155,2.22646001 C22.1969827,2.25698598 22.2562748,2.29299444 22.3115059,2.33462076 C22.3235538,2.34375825 22.3332328,2.35133898 22.3373616,2.35553545 C22.5540892,2.5721277 22.5859012,2.90351384 22.4332036,3.154084 C22.4183806,3.17858599 22.4005117,3.20112512 22.3808831,3.22197213 C22.3453484,3.25967272 22.2832812,3.32485345 22.2656831,3.33798435 C21.5125512,4.16130563 21.3528821,5.33313738 21.7868788,6.30421518 C21.7998744,6.33325208 21.901402,6.55248405 21.9219782,6.59228287 C24.1705442,10.9575643 23.4657395,16.4508851 19.8074964,20.1091282 C18.1268083,21.7898164 16.0588261,22.8471249 13.8907377,23.2809863 L13.8907377,23.2809863 C9.60370026,24.2468523 5.04274132,23.6949482 1.06759673,21.6236495 L1.06759673,21.6236495 L1.0581885,21.618167 C0.98820213,21.5773529 0.922953715,21.5290257 0.863661587,21.4738624 C0.609368752,21.2196373 0.609368752,20.8075028 0.863661587,20.5533454 C0.863661587,20.5533454 0.913613175,20.49561 0.934257123,20.47368 C1.67764233,19.6802755 1.86025667,18.5525745 1.48243856,17.5948306 C1.46734479,17.5566562 1.38409215,17.4069369 1.36155302,17.364769 C-0.980215291,12.976204 -0.301198594,7.39969816 3.39846774,3.70003183 C5.08240478,2.01609479 7.15526027,0.957906289 9.32788357,0.5256017 L9.32788357,0.5256017 Z M11.609886,3.58401961 C9.39495948,3.58401961 7.31262808,4.44612444 5.74639539,6.01154491 C2.51328229,9.24316893 2.51328229,14.5014872 5.74639539,17.7331112 C7.31262808,19.2985994 9.39495948,20.1607042 11.609886,20.1607042 C13.8248801,20.1607042 15.9072115,19.2985994 17.4734442,17.7331112 C20.706625,14.5014872 20.706625,9.24316893 17.4734442,6.01154491 C15.9072115,4.44612444 13.8248801,3.58401961 11.609886,3.58401961 Z M94.7074037,4.85189648 C95.9726409,4.31765816 97.2254916,4.38500481 97.9070804,4.38500481 C99.1633154,4.38500481 100.357957,4.57005581 101.319897,4.94097004 C101.524509,5.01982315 101.652366,5.22429977 101.63619,5.44292257 L101.63619,5.44292257 L101.518079,7.03372495 C101.494593,7.3496112 101.186558,7.56451132 100.882381,7.47584387 C100.222316,7.2834152 99.1158005,7.0107797 98.1354498,7.0071924 C97.1650489,7.0035374 95.2767029,7.31265515 95.2455678,8.61119336 C95.2306229,9.2343834 95.2275906,9.88534058 95.2269755,10.1207958 L95.226819,10.2125546 C95.226819,10.2125546 96.6400157,9.78539408 97.8240308,9.79696823 C98.8837084,9.80739173 100.386994,10.1065598 101.044554,10.5242444 C102.582156,11.500737 102.475688,12.6402153 102.530174,13.4538576 C102.585473,14.278871 102.616202,14.7241711 102.586488,15.739515 C102.542019,17.2618877 101.979556,18.6898398 100.600608,19.427201 C99.5186621,20.0057054 98.6343565,20.0301397 97.3438052,20.0301397 C96.1646634,20.0301397 94.9791593,19.9522342 93.6892848,18.9807503 C92.6848382,18.2241665 92.2956,16.5746135 92.2956,15.6978886 C92.2957167,14.1083723 92.2950399,14.4945833 92.2972058,12.5188559 C92.2988302,10.9514049 92.2957844,9.77361688 92.2957844,8.03092919 C92.2957844,6.24404315 93.7724021,5.24670353 94.7074037,4.85189648 Z M109.343185,4.38223649 C110.546355,4.38223649 111.695918,4.62157093 112.519916,5.03356999 C113.843701,5.69553005 114.556831,7.05038224 114.556831,8.33287909 C114.556831,9.35386683 114.556201,10.218762 114.556007,11.4680155 L114.55598,12.6123057 C114.555989,12.672417 114.556,12.7278301 114.556013,12.7791037 L114.556966,14.5486028 C114.556966,15.9552341 114.423153,17.4652205 113.719837,18.3339584 C112.66131,19.6415665 110.887014,20.0301465 109.443223,20.0301465 C108.141301,20.0301465 106.837551,19.6277587 105.901669,18.9959185 C105.125119,18.4715622 104.330631,17.6099989 104.330631,15.3760529 L104.330631,15.3760529 L104.330631,8.73614678 C104.330631,7.41236204 104.78473,6.00579844 105.963737,5.19906001 C106.953496,4.52187081 108.122688,4.38223649 109.343185,4.38223649 Z M85.1383244,4.38224326 C86.233672,4.38224326 87.4519357,4.53730977 88.3442957,5.02064891 C89.473892,5.63252201 90.0456955,6.74810746 90.0456955,8.03297328 C90.0456955,8.27151632 90.0453495,8.31240131 90.0449768,8.34980044 L90.0440711,8.77480173 C90.0440711,9.67460715 89.8254483,10.3928812 89.3536156,10.8458297 C88.8817829,11.2988459 88.5244057,11.4850476 88.158974,11.6255618 C88.3101148,11.6255618 88.4859606,11.677544 88.8080739,11.7826589 C90.1067475,12.2061644 90.4897096,13.5130279 90.4897096,14.2451774 L90.4897096,14.2451774 L90.4897096,16.3170853 C90.4897096,17.7814519 89.4705077,18.7396696 89.1234864,18.993827 C88.1551836,19.7031666 86.3195643,20.0301532 84.8455187,20.0301532 C82.7912766,20.0301532 81.3397025,19.2569866 80.7810975,18.90164 C80.6243389,18.8019398 80.5347238,18.625011 80.5484639,18.439757 L80.5484639,18.439757 L80.6751704,16.7255647 C80.700823,16.3784756 81.0625321,16.161545 81.3803135,16.3036159 C82.1381833,16.6423798 83.431036,17.1329612 84.5630012,17.1329612 C86.2921519,17.1329612 87.4526125,16.9385697 87.4526125,15.6123482 C87.4526125,14.4591122 87.451333,15.2851977 87.4509993,14.9330433 L87.4509204,14.6843858 C87.4509204,13.7912812 86.5281698,13.4953621 85.4417566,13.3779285 C84.6541053,13.2927806 83.5762882,13.2805296 82.7933749,13.2750472 C82.5166783,13.2730843 82.2942651,13.047693 82.2954158,12.7709964 L82.2954158,12.7709964 L82.3018458,11.156978 C82.3029288,10.8864408 82.5179643,10.6659905 82.7883662,10.6571914 C83.6902698,10.6280191 84.7391855,10.5578297 85.1720315,10.5059153 C85.8517928,10.4243547 86.4248823,10.3446217 86.7283145,10.0726631 C86.9432823,9.87989599 87.1870163,9.7160981 87.1870163,9.04696343 C87.1870163,8.74535872 87.1839705,8.81798481 87.1780142,8.33112605 C87.1725317,7.88135871 86.8695056,7.46820899 86.3810901,7.26948561 C85.9467549,7.09275987 85.09284,7.0654151 84.4982943,7.08118572 C83.268118,7.1139453 81.9770928,7.57677586 81.2295112,7.89401582 C80.9133542,8.02809996 80.5596319,7.81218456 80.5335055,7.46976575 L80.5335055,7.46976575 L80.4110632,5.86427572 C80.3966463,5.67550204 80.4893748,5.49545973 80.6510068,5.39691026 C81.3116132,4.99384562 82.8854266,4.38224326 85.1383244,4.38224326 Z M73.9201523,7.56868072 C75.1970989,7.56868072 76.3313655,7.82249976 77.3231549,8.33000247 C78.314809,8.83764055 78.8097223,9.79545208 78.8097223,11.2036401 L78.8097223,11.2036401 L78.8097223,18.113542 C78.8097223,18.2689469 78.7415634,18.4148083 78.6204748,18.5111918 C78.0912452,18.9324637 76.4613885,20.0301126 73.8473908,20.0301126 C71.9353551,20.0301126 70.9000441,19.7996449 69.9803393,19.3387096 C69.1363741,18.9156778 68.5251778,18.1153695 68.5251778,17.1154578 L68.5251778,17.1154578 L68.5251778,15.60493 C68.5251778,14.1681111 69.2678862,13.5015485 70.186508,13.0306634 C71.3069668,12.4562202 72.3116164,12.3283631 73.3857109,12.26325 C74.169098,12.2158028 75.790494,12.3339132 75.790494,12.3339132 C75.790494,12.3339132 75.7950966,11.6826474 75.7950966,11.2894648 C75.7950966,10.8105929 75.6654797,10.6086206 75.3307093,10.426277 C74.9958712,10.2440011 74.5220757,10.1478883 73.5842312,10.1590563 C72.1991915,10.1754361 70.7420671,10.6015814 69.9082547,10.9166554 C69.5872244,11.0379471 69.2437903,10.8105929 69.2249061,10.4660758 L69.2249061,10.4660758 L69.1326514,8.77706241 C69.1214156,8.57251811 69.2306594,8.37981869 69.4140859,8.29094818 C70.4300389,7.7987423 72.1462618,7.56868072 73.9201523,7.56868072 Z M54.3433198,7.56301548 C56.2700432,7.56301548 57.1548226,7.81656378 58.3431018,8.23668506 C58.5715389,8.31743336 58.7144898,8.5435692 58.6883634,8.78283595 L58.6883634,8.78283595 L58.5095394,10.4193934 C58.473937,10.745094 58.1476273,10.958302 57.8326886,10.8599556 C57.2987887,10.6931796 56.4383083,10.471714 55.358799,10.3589507 C54.4990632,10.2691326 53.0220394,10.1855415 52.6944437,10.5756783 C52.4643144,10.8498705 52.4157165,11.6231049 52.7954975,11.8463302 C53.1667501,12.0646146 54.5200456,12.2985342 55.9811633,12.4721465 C57.5316931,12.6563852 58.134158,13.0187711 58.7218675,13.6085789 C59.3027408,14.205832 59.2897018,15.3162057 59.2897018,16.21195 C59.2897018,17.3917686 59.1775911,18.3022683 58.3288202,19.0331318 C57.5863149,19.672485 56.2203624,20.0301329 54.4743581,20.0301329 C52.8933701,20.0301329 50.878453,19.6546838 49.9540102,19.1605151 C49.7730203,19.0637931 49.6652657,18.8717705 49.678532,18.6681738 L49.678532,18.6681738 L49.7887233,16.9774006 C49.810924,16.6365385 50.1522598,16.4097258 50.478705,16.5178866 C51.2063195,16.7589808 52.4394063,17.1128384 53.5953997,17.1869536 C54.7570787,17.2613395 55.717733,17.1794405 56.1231666,16.8296441 C56.3742783,16.6129164 56.4070378,15.6798776 56.0357852,15.409002 C55.7681584,15.2135952 55.3969734,15.0307778 53.8410289,14.8237968 C52.0898805,14.5908248 50.9377452,14.2042753 50.4123736,13.7017813 C49.8867313,13.2066649 49.6963331,12.4588802 49.6926782,11.5265859 C49.6904445,10.9597911 49.7242871,10.7513887 49.768147,10.3155645 C49.8554608,9.44865405 50.2589992,8.47141691 51.6571698,7.96939669 C52.527803,7.656827 53.5013175,7.56301548 54.3433198,7.56301548 Z M63.9011296,5.14939947 C64.1912955,5.14939947 64.4265012,5.38460511 64.4265012,5.67470335 L64.4265012,5.67470335 L64.4265012,8.19495721 L66.3361003,8.19495721 C66.6253863,8.19495721 66.859509,8.43016285 66.8581553,8.71944887 L66.8581553,8.71944887 L66.8499654,10.4696496 C66.8486794,10.7618461 66.6083973,11.0009775 66.3160655,11.0009775 L66.3160655,11.0009775 L64.4026083,11.0009775 L64.4156039,15.8927134 C64.4156039,16.3824826 64.4770619,16.5946753 64.6020086,16.7145456 C64.7262107,16.833739 65.1308998,16.8599331 65.6458478,16.8547891 C66.0179804,16.8510664 66.3162008,16.8181714 66.5458563,16.7801324 C66.8554479,16.7287595 67.1406728,16.9570612 67.1550897,17.2706462 L67.1550897,17.2706462 L67.2351611,19.0061592 C67.2469383,19.2633625 67.0700096,19.4903106 66.8177473,19.5417513 C66.4058836,19.6257484 65.7249717,19.7282237 64.8691616,19.723418 C63.7850497,19.7173264 62.4880682,19.6300126 61.7132095,18.9556662 C60.9382153,18.2813874 61.0331098,17.243166 61.0331098,16.7933987 L61.0331098,16.7933987 L61.0331098,5.97041945 C61.0331098,5.38460511 61.2682478,5.14939947 61.5584137,5.14939947 L61.5584137,5.14939947 Z M40.2752066,7.85002729 C41.9826304,7.43349332 42.9744198,7.57806864 44.019342,7.70240613 C45.5763696,7.88779556 46.4206732,8.59300638 46.7043414,8.82746749 C47.482449,9.47081415 47.7405322,10.7773392 47.7405322,12.2674939 L47.7405322,12.2674939 L47.7405322,19.1809154 C47.7405322,19.467697 47.5079663,19.7235466 47.2212523,19.7235466 L47.2212523,19.7235466 L44.8845604,19.7235466 C44.5978464,19.7235466 44.3654158,19.467697 44.3654158,19.1809154 L44.3654158,19.1809154 L44.3654158,12.5829063 C44.3654158,12.2782558 44.3779376,11.9386121 44.3779376,11.4870172 C44.3779376,10.6756762 43.4249317,10.4160363 42.5735888,10.4160363 C41.5271775,10.4160363 40.5480452,10.6682985 40.5480452,11.4870172 C40.5480452,12.3057359 40.5359972,12.5420245 40.5359972,13.2762046 L40.5359972,13.2762046 L40.5359972,19.1809154 C40.5359972,19.467697 40.303499,19.7235466 40.0166496,19.7235466 L40.0166496,19.7235466 L37.7450031,19.7235466 C37.4582214,19.7235466 37.2257908,19.467697 37.2257908,19.1809154 L37.2257908,19.1809154 L37.2257908,9.57653824 C37.2257908,9.4315568 37.2858952,9.29347925 37.3924992,9.19520051 C37.7186736,8.89434034 38.5638571,8.26744116 40.2752066,7.85002729 Z M34.475225,4.0863038 C34.7653909,4.0863038 35.0005965,4.32150944 35.0005965,4.61160768 L35.0005965,4.61160768 L35.0005965,19.1982157 C35.0005965,19.4883816 34.7653909,19.7235195 34.475225,19.7235195 L34.475225,19.7235195 L32.0889876,19.7235195 C31.7988216,19.7235195 31.563616,19.4883816 31.563616,19.1982157 L31.563616,19.1982157 L31.563616,4.61160768 C31.563616,4.32150944 31.7988216,4.0863038 32.0889876,4.0863038 L32.0889876,4.0863038 Z M11.6098995,5.74676088 C13.2461186,5.74676088 14.7843973,6.3839482 15.941406,7.54088923 C18.329674,9.92929256 18.329674,13.8153636 15.941406,16.2037669 C14.7843973,17.3607756 13.2461186,17.9978953 11.6098995,17.9978953 C9.97374812,17.9978953 8.43546936,17.3607756 7.27846065,16.2037669 C4.89012501,13.8153636 4.89012501,9.92929256 7.27846065,7.54088923 C8.43546936,6.3839482 9.97374812,5.74676088 11.6098995,5.74676088 Z M75.8189894,14.7267838 C75.8189894,14.7267838 75.1340164,14.5977083 74.1628033,14.6257299 C73.6314077,14.6410945 72.7723487,14.6475245 72.180375,14.8815795 C71.588469,15.1156345 71.3345146,15.5507142 71.3345146,16.1367993 C71.3345146,16.5357351 71.242869,16.6156712 71.4992601,16.8872238 C71.8005941,17.2063589 72.590682,17.3591918 73.2570416,17.3494451 C73.9206261,17.3397662 74.7626961,17.272758 75.3218425,16.88675 C75.8809213,16.5006743 75.8189894,16.2756891 75.8189894,15.2533737 L75.8189894,15.2533737 Z M97.4337586,12.6227525 C96.3740811,12.5916174 95.2459062,13.0796268 95.2459062,13.0796268 C95.2459062,13.0796268 95.2433582,13.4181788 95.2419993,13.9979069 L95.2411682,14.7213284 C95.2411682,15.5381519 95.1628566,16.1474529 95.6028096,16.6640254 C96.0425596,17.1807333 96.6834695,17.2760339 97.3607264,17.2760339 C98.0239048,17.2760339 98.8841822,17.1632029 99.264843,16.6640254 C99.6451655,16.1649834 99.662899,15.683404 99.662899,14.8874952 L99.6621172,14.6911661 C99.6552017,13.9378295 99.5948859,13.5564317 99.1953981,13.1214562 C98.7624167,12.650165 98.0618761,12.6412306 97.4337586,12.6227525 Z M109.329174,7.06073806 C108.770028,7.06073806 108.441552,7.17309529 108.068743,7.46705158 C107.530985,7.89109859 107.450913,8.44401799 107.458494,9.44995361 C107.465127,10.3195038 107.452876,11.1447203 107.452876,12.1353591 C107.452876,13.4924449 107.462487,14.0121986 107.462487,14.8034371 L107.462961,15.0209105 C107.468349,16.1298531 107.524861,16.4411015 107.889309,16.768538 C108.246619,17.0895006 108.738013,17.2376632 109.289646,17.2376632 C109.649528,17.2376632 110.370238,17.2333314 110.766873,16.8681027 C111.219348,16.4515011 111.280806,16.234435 111.280806,15.2829859 L111.280806,15.2829859 L111.280806,14.526199 C111.280806,13.7499866 111.292718,13.2843809 111.292718,12.1941774 L111.292949,11.1487861 C111.29323,10.5523964 111.293711,10.1335278 111.294072,9.75085138 L111.294565,8.77188724 C111.293613,8.33262057 111.269333,7.87889835 110.823728,7.47442925 C110.500532,7.18101444 109.852312,7.06073806 109.329174,7.06073806 Z M14.9573327,8.60252967 C14.2657266,7.91132966 13.1444556,7.91132966 12.4528494,8.60252967 C11.7612433,9.293662 11.7612433,10.4141885 12.4528494,11.1053885 C13.1444556,11.7965208 14.2657266,11.7965208 14.9573327,11.1053885 C15.6489388,10.4141885 15.6489388,9.293662 14.9573327,8.60252967 Z" id="Combined-Shape"></path>
            </g>
        </g>
    </g>
</svg>